<svg width="42" height="42" viewBox="0 0 42 42" fill="none" xmlns="http://www.w3.org/2000/svg">
<path d="M41.865 16.5294C41.865 16.5294 37.931 11.2741 37.9286 11.2711C37.9276 11.2697 37.8418 11.1174 37.5775 11.0333L21.1841 6.40439C21.0636 6.37041 20.9363 6.37041 20.8158 6.40439L4.42241 11.0333C4.42241 11.0333 4.1986 11.0979 4.0641 11.2795C4.01025 11.3522 0.13506 16.5294 0.13506 16.5294C0.00513989 16.7032 -0.0338734 16.9287 0.0303398 17.136C0.0946464 17.3433 0.254339 17.5073 0.459766 17.577L3.92905 18.7544V28.1693C3.92905 28.4435 4.09434 28.6906 4.34784 28.7953L20.7413 35.5695C20.7901 35.5897 20.8518 35.6209 21 35.6209C21.1481 35.6209 21.2586 35.5695 21.2586 35.5695L37.6522 28.7953C37.9057 28.6906 38.0709 28.4434 38.0709 28.1693V18.7542L41.5402 17.5768C41.7456 17.5071 41.9053 17.343 41.9696 17.1358C42.0338 16.9287 41.9948 16.7032 41.865 16.5294ZM1.77912 16.5939L4.872 12.4611L6.12294 12.8057L13.1632 14.745L19.8211 16.5792L15.9163 21.3919L1.77912 16.5939ZM20.3226 33.9304L5.28387 27.7162V19.2141L15.9276 22.8268C15.9989 22.8512 16.0723 22.8627 16.1452 22.8627C16.3454 22.8627 16.5401 22.7737 16.6712 22.612L20.3227 18.1115L20.3226 33.9304ZM21 15.499L7.12786 11.6773L21 7.76014L34.8721 11.6773L21 15.499ZM36.7161 27.7162L21.6773 33.9304V18.1117L25.3288 22.6121C25.4599 22.7737 25.6546 22.8628 25.8548 22.8628C25.9277 22.8628 26.0011 22.8514 26.0725 22.827L36.7161 19.2143V27.7162ZM26.0837 21.3921L22.1789 16.5794L37.128 12.4611L40.221 16.5939L26.0837 21.3921Z" fill="#28B446"/>
</svg>
