<svg xmlns="http://www.w3.org/2000/svg" width="16" height="16" id="share">
  <g color="#000">
    <path fill="#fff" d="M13 1048.362a1.5 1.5 0 0 1-1.5 1.5 1.5 1.5 0 0 1-1.5-1.5 1.5 1.5 0 0 1 1.5-1.5 1.5 1.5 0 0 1 1.5 1.5zm0-8a1.5 1.5 0 0 1-1.5 1.5 1.5 1.5 0 0 1-1.5-1.5 1.5 1.5 0 0 1 1.5-1.5 1.5 1.5 0 0 1 1.5 1.5z" overflow="visible" style="isolation:auto;mix-blend-mode:normal" transform="translate(0 -1036.362)"></path>
    <path fill="#c2e4f8" d="M6.5 1044.362a2 2 0 0 1-2 2 2 2 0 0 1-2-2 2 2 0 0 1 2-2 2 2 0 0 1 2 2z" overflow="visible" style="isolation:auto;mix-blend-mode:normal" transform="translate(0 -1036.362)"></path>
    <path fill="#249fe6" d="M4.5 1041.861a2.508 2.508 0 0 0-2.5 2.5c0 1.375 1.125 2.5 2.5 2.5s2.5-1.125 2.5-2.5-1.125-2.5-2.5-2.5zm0 1c.834 0 1.5.666 1.5 1.5 0 .835-.666 1.5-1.5 1.5s-1.5-.665-1.5-1.5c0-.834.666-1.5 1.5-1.5zm7 3.5c-1.099 0-2 .902-2 2 0 1.099.901 2 2 2s2-.901 2-2c0-1.098-.901-2-2-2zm0 1c.558 0 1 .442 1 1s-.442 1-1 1-1-.442-1-1 .442-1 1-1z" font-family="sans-serif" font-weight="400" overflow="visible" style="line-height:normal;text-indent:0;text-align:start;text-decoration-line:none;text-decoration-style:solid;text-decoration-color:#000;text-transform:none;block-progression:tb;isolation:auto;mix-blend-mode:normal" transform="translate(0 -1036.362)"></path>
    <path fill="#249fe6" fill-rule="evenodd" d="m6.412 1044.865-.5.865 3.688 2.13.5-.866-3.688-2.129zm3.188-4-3.688 2.13.5.864 3.688-2.129-.5-.865z" font-family="sans-serif" font-weight="400" overflow="visible" style="line-height:normal;text-indent:0;text-align:start;text-decoration-line:none;text-decoration-style:solid;text-decoration-color:#000;text-transform:none;block-progression:tb;isolation:auto;mix-blend-mode:normal" transform="translate(0 -1036.362)"></path>
    <path fill="#249fe6" d="M11.5 1038.361c-1.099 0-2 .902-2 2 0 1.099.901 2 2 2s2-.901 2-2c0-1.098-.901-2-2-2zm0 1c.558 0 1 .442 1 1s-.442 1-1 1-1-.442-1-1 .442-1 1-1z" font-family="sans-serif" font-weight="400" overflow="visible" style="line-height:normal;text-indent:0;text-align:start;text-decoration-line:none;text-decoration-style:solid;text-decoration-color:#000;text-transform:none;block-progression:tb;isolation:auto;mix-blend-mode:normal" transform="translate(0 -1036.362)"></path>
  </g>
</svg>
